<?xml version="1.0" encoding="utf-8"?>
<!-- Generator: Adobe Illustrator 19.0.0, SVG Export Plug-In . SVG Version: 6.00 Build 0)  -->
<svg version="1.1" id="GUTS" xmlns="http://www.w3.org/2000/svg" xmlns:xlink="http://www.w3.org/1999/xlink" x="0px" y="0px"
	 viewBox="0 0 792 342" style="enable-background:new 0 0 792 342;" xml:space="preserve">
<style type="text/css">
	.st0{fill:#E5E3E3;}
	.st1{fill:none;}
	.st2{font-family:'PTSerif-Bold';}
	.st3{font-size:6.5px;}
	.st4{font-family:'PTSerif-Regular';}
	.st5{font-size:6px;}
	.st6{fill:none;stroke:#D8D8D8;stroke-miterlimit:10;}
	.st7{fill:#145251;}
	.st8{fill:#5B5A5A;}
	.st9{fill:#FFFFFF;}
	.st10{font-size:7px;}
	.st11{fill:#566468;}
	.st12{font-size:5px;}
</style>
<g id="XMLID_1950_">
	<rect id="XMLID_1643_" x="16.7" y="133.6" class="st0" width="755.6" height="72.9"/>
	<rect id="XMLID_1533_" x="24.9" y="141" class="st1" width="40.5" height="17.6"/>
	<text id="XMLID_1640_" transform="matrix(1 0 0 1 24.8744 146.5549)"><tspan x="0" y="0" class="st2 st3">Preliminary </tspan><tspan x="0" y="7.8" class="st2 st3">Research</tspan></text>
	<rect id="XMLID_1530_" x="401.3" y="141" class="st1" width="40.5" height="17.6"/>
	<text id="XMLID_1638_" transform="matrix(1 0 0 1 401.3017 146.5549)" class="st2 st3">Core Tasks</text>
	<rect id="XMLID_1528_" x="347.5" y="141" class="st1" width="40.5" height="17.6"/>
	<text id="XMLID_1636_" transform="matrix(1 0 0 1 347.5268 146.5549)" class="st2 st3">Storyboard</text>
	<rect id="XMLID_1499_" x="293.8" y="141" class="st1" width="40.5" height="17.6"/>
	<text id="XMLID_1634_" transform="matrix(1 0 0 1 293.7509 146.5549)"><tspan x="0" y="0" class="st2 st3">User </tspan><tspan x="0" y="7.8" class="st2 st3">Scenario</tspan></text>
	<rect id="XMLID_1494_" x="240" y="141" class="st1" width="40.5" height="17.6"/>
	<text id="XMLID_1632_" transform="matrix(1 0 0 1 239.976 146.5549)" class="st2 st3">Persona</text>
	<rect id="XMLID_1491_" x="186.2" y="141" class="st1" width="48.3" height="17.6"/>
	<text id="XMLID_1630_" transform="matrix(1 0 0 1 186.2006 146.5569)"><tspan x="0" y="0" class="st2 st3">Design </tspan><tspan x="0" y="7.8" class="st2 st3">Requirements</tspan></text>
	<rect id="XMLID_1489_" x="132.4" y="141" class="st1" width="46" height="17.6"/>
	<text id="XMLID_1628_" transform="matrix(1 0 0 1 132.4257 146.5569)" class="st2 st3">Survey</text>
	<rect id="XMLID_1486_" x="78.7" y="141" class="st1" width="48.5" height="17.6"/>
	<text id="XMLID_1626_" transform="matrix(1 0 0 1 78.6503 146.5569)" class="st2 st3">Field Study</text>
	<rect id="XMLID_1480_" x="508.9" y="141" class="st1" width="44.3" height="17.6"/>
	<text id="XMLID_1624_" transform="matrix(1 0 0 1 508.8524 146.5549)"><tspan x="0" y="0" class="st2 st3">Usibility </tspan><tspan x="0" y="7.8" class="st2 st3">Testing Plan</tspan></text>
	<rect id="XMLID_1475_" x="670.2" y="141.3" class="st1" width="45" height="17.6"/>
	<text id="XMLID_1622_" transform="matrix(1 0 0 1 670.1786 146.8704)"><tspan x="0" y="0" class="st2 st3">Hi-Fi</tspan><tspan x="0" y="7.8" class="st2 st3">Mockup</tspan></text>
	<rect id="XMLID_1421_" x="616.4" y="141.3" class="st1" width="40.5" height="17.6"/>
	<text id="XMLID_1620_" transform="matrix(1 0 0 1 616.4032 146.8713)"><tspan x="0" y="0" class="st2 st3">Refine UX </tspan><tspan x="0" y="7.8" class="st2 st3">Flow </tspan></text>
	<rect id="XMLID_1419_" x="562.6" y="141.3" class="st1" width="40.5" height="17.6"/>
	<text id="XMLID_1618_" transform="matrix(1 0 0 1 562.6278 146.8713)"><tspan x="0" y="0" class="st2 st3">Analysis &amp; </tspan><tspan x="0" y="7.8" class="st2 st3">Findings </tspan></text>
	<rect id="XMLID_1417_" x="455.1" y="141.3" class="st1" width="40.5" height="17.6"/>
	<text id="XMLID_1616_" transform="matrix(1 0 0 1 455.0771 146.8713)"><tspan x="0" y="0" class="st2 st3">Lo-Fi </tspan><tspan x="0" y="7.8" class="st2 st3">Mockup</tspan></text>
	<rect id="XMLID_1415_" x="724" y="141.3" class="st1" width="40.5" height="17.6"/>
	<text id="XMLID_1608_" transform="matrix(1 0 0 1 723.9535 146.8713)"><tspan x="0" y="0" class="st2 st3">Functional </tspan><tspan x="0" y="7.8" class="st2 st3">App</tspan></text>
	<rect id="XMLID_1413_" x="25" y="162.1" class="st1" width="40.5" height="30.5"/>
	<text id="XMLID_1606_" transform="matrix(1 0 0 1 25.0023 167.2129)"><tspan x="0" y="0" class="st4 st5">Define initial </tspan><tspan x="0" y="7.2" class="st4 st5">research </tspan><tspan x="0" y="14.4" class="st4 st5">question</tspan></text>
	<rect id="XMLID_1409_" x="401.4" y="162.1" class="st1" width="47.7" height="36.1"/>
	<text id="XMLID_1604_" transform="matrix(1 0 0 1 401.4301 167.2148)"><tspan x="0" y="0" class="st4 st5">6 core tasks the </tspan><tspan x="0" y="7.2" class="st4 st5">design solution </tspan><tspan x="0" y="14.4" class="st4 st5">need to help </tspan><tspan x="0" y="21.6" class="st4 st5">users achieve </tspan><tspan x="0" y="28.8" class="st4 st5">certain goals</tspan></text>
	<rect id="XMLID_1407_" x="347.7" y="162.1" class="st1" width="44.9" height="35.6"/>
	<text id="XMLID_1602_" transform="matrix(1 0 0 1 347.6547 167.2148)"><tspan x="0" y="0" class="st4 st5">Analyze the </tspan><tspan x="0" y="7.2" class="st4 st5">strength &amp; </tspan><tspan x="0" y="14.4" class="st4 st5">weakness of </tspan><tspan x="0" y="21.6" class="st4 st5">each</tspan></text>
	<rect id="XMLID_1405_" x="293.9" y="162.1" class="st1" width="40.5" height="30.5"/>
	<text id="XMLID_1600_" transform="matrix(1 0 0 1 293.8793 167.2129)"><tspan x="0" y="0" class="st4 st5">details of 3 </tspan><tspan x="0" y="7.2" class="st4 st5">persona, </tspan><tspan x="0" y="14.4" class="st4 st5">situation &amp; </tspan><tspan x="0" y="21.6" class="st4 st5">scenario</tspan></text>
	<rect id="XMLID_1403_" x="240.1" y="162.1" class="st1" width="40.5" height="30.5"/>
	<text id="XMLID_1598_" transform="matrix(1 0 0 1 240.1039 167.2129)"><tspan x="0" y="0" class="st4 st5">2 persona </tspan><tspan x="0" y="7.2" class="st4 st5">represent 2 </tspan><tspan x="0" y="14.4" class="st4 st5">groups of our </tspan><tspan x="0" y="21.6" class="st4 st5">target users</tspan></text>
	<rect id="XMLID_1401_" x="186.3" y="162.1" class="st1" width="40.5" height="38.2"/>
	<text id="XMLID_1596_" transform="matrix(1 0 0 1 186.3285 167.2129)"><tspan x="0" y="0" class="st4 st5">cross compare </tspan><tspan x="0" y="7.2" class="st4 st5">findings from </tspan><tspan x="0" y="14.4" class="st4 st5">secondary </tspan><tspan x="0" y="21.6" class="st4 st5">research, field </tspan><tspan x="0" y="28.8" class="st4 st5">study &amp; survey  </tspan></text>
	<rect id="XMLID_1399_" x="132.4" y="162.1" class="st1" width="46.4" height="36.6"/>
	<text id="XMLID_1592_" transform="matrix(1 0 0 1 132.4253 167.2148)"><tspan x="0" y="0" class="st4 st5">Quantitative </tspan><tspan x="0" y="7.2" class="st4 st5">data collection</tspan></text>
	<rect id="XMLID_1397_" x="78.8" y="162.1" class="st1" width="40.5" height="30.5"/>
	<text id="XMLID_1590_" transform="matrix(1 0 0 1 78.7777 167.2129)"><tspan x="0" y="0" class="st4 st5">Qualitative  </tspan><tspan x="0" y="7.2" class="st4 st5">data collection</tspan></text>
	<rect id="XMLID_1395_" x="509" y="162.1" class="st1" width="44.9" height="36.1"/>
	<text id="XMLID_1588_" transform="matrix(1 0 0 1 508.9809 167.2148)"><tspan x="0" y="0" class="st4 st5">documents for </tspan><tspan x="0" y="7.2" class="st4 st5">guiding the </tspan><tspan x="0" y="14.4" class="st4 st5">participants to </tspan><tspan x="0" y="21.6" class="st4 st5">go through the </tspan><tspan x="0" y="28.8" class="st4 st5">mockup</tspan></text>
	<rect id="XMLID_1393_" x="670.3" y="162.1" class="st1" width="40.5" height="35.4"/>
	<text id="XMLID_1586_" transform="matrix(1 0 0 1 670.307 167.2148)"><tspan x="0" y="0" class="st4 st5">deliver a clean </tspan><tspan x="0" y="7.2" class="st4 st5">design &amp; </tspan><tspan x="0" y="14.4" class="st4 st5">reduce user’s </tspan><tspan x="0" y="21.6" class="st4 st5">cognitive load </tspan></text>
	<rect id="XMLID_1391_" x="616.5" y="162.1" class="st1" width="40.5" height="36.1"/>
	<text id="XMLID_1584_" transform="matrix(1 0 0 1 616.5316 167.2148)"><tspan x="0" y="0" class="st4 st5">refine the big </tspan><tspan x="0" y="7.2" class="st4 st5">picture of the </tspan><tspan x="0" y="14.4" class="st4 st5">sitemap and </tspan><tspan x="0" y="21.6" class="st4 st5">information </tspan><tspan x="0" y="28.8" class="st4 st5">architecture</tspan></text>
	<rect id="XMLID_1388_" x="562.8" y="162.1" class="st1" width="45.2" height="36.1"/>
	<text id="XMLID_1582_" transform="matrix(1 0 0 1 562.7562 167.2148)"><tspan x="0" y="0" class="st4 st5">identify issues &amp; </tspan><tspan x="0" y="7.2" class="st4 st5">understand </tspan><tspan x="0" y="14.4" class="st4 st5">user’s thoughts </tspan><tspan x="0" y="21.6" class="st4 st5">during the </tspan><tspan x="0" y="28.8" class="st4 st5">whole process</tspan></text>
	<rect id="XMLID_1386_" x="455.2" y="162.1" class="st1" width="42.6" height="37.7"/>
	<text id="XMLID_1580_" transform="matrix(1 0 0 1 455.205 167.2129)" class="st4 st5">paper mockup</text>
	<rect id="XMLID_1365_" x="724.1" y="162.1" class="st1" width="40.5" height="30.5"/>
	<text id="XMLID_1578_" transform="matrix(1 0 0 1 724.0819 167.2129)" class="st4 st5">Demo</text>
	<line id="XMLID_1577_" class="st6" x1="128.9" y1="141.3" x2="128.9" y2="257.5"/>
	<line id="XMLID_1576_" class="st6" x1="182.6" y1="73.4" x2="182.6" y2="189"/>
	<line id="XMLID_1573_" class="st6" x1="290.2" y1="54.3" x2="290.2" y2="189"/>
	<line id="XMLID_1569_" class="st6" x1="451.3" y1="54.3" x2="451.3" y2="190.1"/>
	<line id="XMLID_1567_" class="st6" x1="236.4" y1="141.3" x2="236.4" y2="259.1"/>
	<line id="XMLID_1566_" class="st6" x1="505.1" y1="141.3" x2="505.1" y2="278.8"/>
	<g id="XMLID_1548_">
		<rect id="XMLID_58_" x="294" y="55.4" class="st1" width="98.7" height="24.6"/>
		<text id="XMLID_57_" transform="matrix(1 0 0 1 294.0188 60.51)"><tspan x="0" y="0" class="st7 st4 st5">Kara</tspan><tspan x="0" y="7.2" class="st7 st4 st5">Thomas</tspan><tspan x="0" y="14.4" class="st7 st4 st5">Stephen</tspan></text>
	</g>
	<g id="XMLID_1546_">
		<rect id="XMLID_62_" x="186.5" y="75" class="st1" width="84" height="33.1"/>
		<text id="XMLID_61_" transform="matrix(1 0 0 1 186.4685 80.073)"><tspan x="0" y="0" class="st7 st4 st5">Triangulated insights</tspan><tspan x="0" y="7.2" class="st7 st4 st5">(4 key findings)</tspan><tspan x="0" y="14.4" class="st7 st4 st5">Rank 15 design requirements</tspan><tspan x="0" y="21.6" class="st7 st4 st5">(ux, business, technology)</tspan></text>
	</g>
	<g id="XMLID_1536_">
		<rect id="XMLID_60_" x="132.7" y="248.5" class="st1" width="72.3" height="31.3"/>
		<text id="XMLID_59_" transform="matrix(1 0 0 1 132.6931 253.5925)" class="st7 st4 st5">29 valid response</text>
	</g>
	<g id="XMLID_1149_">
		<rect id="XMLID_55_" x="240.2" y="243.2" class="st1" width="83.9" height="21.5"/>
		<text id="XMLID_54_" transform="matrix(1 0 0 1 240.2434 248.2688)"><tspan x="0" y="0" class="st7 st4 st5">Kristen - Flexible and Adaptive</tspan><tspan x="0" y="7.2" class="st7 st4 st5">Dale - Stressful and Efficient</tspan></text>
	</g>
	<g id="XMLID_983_">
		<rect id="XMLID_47_" x="509.7" y="233.6" class="st1" width="94.4" height="45.2"/>
		<text id="XMLID_46_" transform="matrix(1 0 0 1 509.7258 238.6621)"><tspan x="0" y="0" class="st7 st4 st5">6 premise</tspan><tspan x="0" y="7.2" class="st7 st4 st5">3 user-testing scenarios</tspan><tspan x="0" y="14.4" class="st7 st4 st5">3 different types of participants</tspan><tspan x="0" y="21.6" class="st7 st4 st5">Metrics</tspan><tspan x="0" y="28.8" class="st7 st4 st5">Video recording</tspan><tspan x="0" y="36" class="st7 st4 st5">Notes taking</tspan></text>
	</g>
	<g id="XMLID_342_">
		<rect id="XMLID_51_" x="455.2" y="56.7" class="st1" width="94.6" height="45.8"/>
		<text id="XMLID_49_" transform="matrix(1 0 0 1 455.2455 61.8137)"><tspan x="0" y="0" class="st7 st4 st5">2 Lo-Fi mockup combine into one</tspan><tspan x="0" y="7.2" class="st7 st4 st5">3 main focus</tspan><tspan x="0" y="14.4" class="st7 st4 st5">A / B testing for the main process</tspan></text>
	</g>
	<rect id="XMLID_330_" x="237.4" y="114.1" class="st8" width="266.3" height="18.5"/>
	<rect id="XMLID_329_" x="505.1" y="114.1" class="st8" width="267.2" height="18.5"/>
	<rect id="XMLID_678_" x="237.8" y="120.2" class="st1" width="266" height="7.1"/>
	<text id="XMLID_325_" transform="matrix(1 0 0 1 331.56 126.1897)" class="st9 st2 st10">Ideation &amp; Prototyping</text>
	<rect id="XMLID_651_" x="505.4" y="120.2" class="st1" width="267" height="7.1"/>
	<text id="XMLID_323_" transform="matrix(1 0 0 1 602.5428 126.1887)" class="st9 st2 st10">Refine &amp; Finalization</text>
	<polygon id="XMLID_2_" class="st11" points="154.2,226.1 92.6,226.1 89.3,207.6 157.5,207.6 	"/>
	<rect id="XMLID_16_" x="89.3" y="213.3" class="st1" width="69" height="7.1"/>
	<text id="XMLID_3_" transform="matrix(1 0 0 1 102.6249 217.5137)" class="st9 st2 st12">Expand the Scope</text>
	<line id="XMLID_21_" class="st6" x1="21.1" y1="141.3" x2="21.1" y2="279.4"/>
	<line id="XMLID_14_" class="st6" x1="75.9" y1="74.3" x2="75.9" y2="189.9"/>
	<g id="XMLID_10_">
		<rect id="XMLID_53_" x="79.8" y="75.9" class="st1" width="84" height="33.1"/>
		<text id="XMLID_52_" transform="matrix(1 0 0 1 79.7559 81.0027)"><tspan x="0" y="0" class="st7 st4 st5">Field observation</tspan><tspan x="0" y="7.2" class="st7 st4 st5">Interview</tspan><tspan x="0" y="14.4" class="st7 st4 st5">Affinity diagram analysis</tspan></text>
	</g>
	<g id="XMLID_7_">
		<rect id="XMLID_50_" x="25" y="242.3" class="st1" width="92" height="36.4"/>
		<text id="XMLID_48_" transform="matrix(1 0 0 1 24.9802 247.4407)"><tspan x="0" y="0" class="st7 st4 st5">Literature Review &amp; Initial Scope</tspan><tspan x="0" y="7.2" class="st7 st4 st5">Market Segmentation Analysis</tspan><tspan x="0" y="14.4" class="st7 st4 st5">Field research question lists</tspan><tspan x="0" y="21.6" class="st7 st4 st5">Target participants</tspan><tspan x="0" y="28.8" class="st7 st4 st5">Area focus</tspan></text>
	</g>
	<rect id="XMLID_331_" x="16.7" y="114.1" class="st8" width="219.1" height="18.5"/>
	<rect id="XMLID_680_" x="16.7" y="120.2" class="st1" width="219.6" height="7.1"/>
	<text id="XMLID_327_" transform="matrix(1 0 0 1 94.4506 126.1897)" class="st9 st2 st10">Research &amp; Insight</text>
	<polygon id="XMLID_322_" class="st11" points="82.6,226.1 20.1,226.1 16.7,207.6 86,207.6 	"/>
	<rect id="XMLID_15_" x="16.7" y="213.3" class="st1" width="69.1" height="7.1"/>
	<text id="XMLID_1_" transform="matrix(1 0 0 1 22.5645 217.5137)" class="st9 st2 st12">Modify Design Question</text>
	<line id="XMLID_9_" class="st6" x1="720.4" y1="54.3" x2="720.4" y2="190.1"/>
	<g id="XMLID_4_">
		<rect id="XMLID_56_" x="724.4" y="56.7" class="st1" width="43.4" height="15.4"/>
		<text id="XMLID_45_" transform="matrix(1 0 0 1 724.3811 61.8137)"><tspan x="0" y="0" class="st7 st4 st5">Android Studio</tspan><tspan x="0" y="7.2" class="st7 st4 st5">Invision</tspan></text>
	</g>
</g>
</svg>
